<?xml version="1.0" encoding="UTF-8" standalone="no"?>
<!DOCTYPE svg PUBLIC "-//W3C//DTD SVG 1.1//EN" "http://www.w3.org/Graphics/SVG/1.1/DTD/svg11.dtd">
<svg width="100%" height="100%" viewBox="0 0 2048 2048" version="1.1" xmlns="http://www.w3.org/2000/svg" xmlns:xlink="http://www.w3.org/1999/xlink" xml:space="preserve" xmlns:serif="http://www.serif.com/" style="fill-rule:evenodd;clip-rule:evenodd;stroke-linecap:round;">
    <g transform="matrix(2,0,0,2,0,0)">
        <g>
            <rect x="0" y="0" width="1024" height="1024" style="fill:url(#_Linear1);"/>
            <rect x="0" y="0" width="1024" height="1024" style="fill:url(#_Radial2);"/>
            <g>
                <path d="M-40,812C328,764 696,764 1064,812" style="fill:none;fill-rule:nonzero;stroke:white;stroke-opacity:0.12;stroke-width:15px;"/>
                <path d="M-40,884C328,836 696,836 1064,884" style="fill:none;fill-rule:nonzero;stroke:white;stroke-opacity:0.12;stroke-width:15px;"/>
                <path d="M-40,956C328,908 696,908 1064,956" style="fill:none;fill-rule:nonzero;stroke:white;stroke-opacity:0.12;stroke-width:15px;"/>
            </g>
        </g>
        <g>
            <g transform="matrix(0.883071,0.46924,-0.447324,0.841827,196.421,-206.641)">
                <path d="M540,300L540,206" style="fill:none;fill-rule:nonzero;stroke:rgb(65,75,87);stroke-width:42px;"/>
            </g>
            <g transform="matrix(0.968245,0.250004,-0.250004,0.968245,87.07,-129.218)">
                <path d="M540,300L598,332" style="fill:none;fill-rule:nonzero;stroke:rgb(65,75,87);stroke-width:40px;"/>
            </g>
        </g>
        <g>
            <path d="M450,660C438,590 429.333,529.333 424,478" style="fill:none;fill-rule:nonzero;stroke:white;stroke-width:86px;"/>
            <path d="M426,486L520,326" style="fill:none;fill-rule:nonzero;stroke:white;stroke-width:58px;"/>
            <path d="M432,516C392,556 370,596.667 366,638" style="fill:none;fill-rule:nonzero;stroke:white;stroke-width:50px;"/>
            <path d="M450,656C436.667,717.333 416.667,772.667 390,822" style="fill:none;fill-rule:nonzero;stroke:white;stroke-width:62px;"/>
            <path d="M450,656C482,714.667 506.667,768 524,816" style="fill:none;fill-rule:nonzero;stroke:white;stroke-width:62px;"/>
        </g>
        <g transform="matrix(0.82366,0,0,0.826217,86.9356,60.3027)">
            <circle cx="540" cy="300" r="47" style="fill:white;"/>
        </g>
        <g transform="matrix(1,0,0,1,-2,2)">
            <circle cx="404" cy="382" r="58" style="fill:white;"/>
        </g>
        <g>
            <g transform="matrix(0.867526,0.497393,-0.497393,0.867526,215.933,-225.642)">
                <path d="M540,178L456,163" style="fill:none;fill-rule:nonzero;stroke:rgb(255,210,63);stroke-width:24px;"/>
            </g>
            <g transform="matrix(0.867526,0.497393,-0.497393,0.867526,215.933,-225.642)">
                <path d="M540,178L480,118" style="fill:none;fill-rule:nonzero;stroke:rgb(255,210,63);stroke-width:24px;"/>
            </g>
            <g transform="matrix(0.867526,0.497393,-0.497393,0.867526,215.933,-225.642)">
                <path d="M540,178L540,93" style="fill:none;fill-rule:nonzero;stroke:rgb(255,210,63);stroke-width:24px;"/>
            </g>
            <g transform="matrix(0.867526,0.497393,-0.497393,0.867526,215.933,-225.642)">
                <path d="M540,178L600,118" style="fill:none;fill-rule:nonzero;stroke:rgb(255,210,63);stroke-width:24px;"/>
            </g>
            <g transform="matrix(0.867526,0.497393,-0.497393,0.867526,215.933,-225.642)">
                <path d="M540,178L624,163" style="fill:none;fill-rule:nonzero;stroke:rgb(255,210,63);stroke-width:24px;"/>
            </g>
        </g>
    </g>
    <defs>
        <linearGradient id="_Linear1" x1="0" y1="0" x2="1" y2="0" gradientUnits="userSpaceOnUse" gradientTransform="matrix(1024,1024,-1024,1024,0,0)"><stop offset="0" style="stop-color:rgb(255,138,61);stop-opacity:1"/><stop offset="0.55" style="stop-color:rgb(251,82,54);stop-opacity:1"/><stop offset="1" style="stop-color:rgb(222,43,62);stop-opacity:1"/></linearGradient>
        <radialGradient id="_Radial2" cx="0" cy="0" r="1" gradientUnits="userSpaceOnUse" gradientTransform="matrix(870.4,0,0,870.4,307.2,245.76)"><stop offset="0" style="stop-color:white;stop-opacity:0.2"/><stop offset="0.55" style="stop-color:white;stop-opacity:0"/><stop offset="1" style="stop-color:white;stop-opacity:0"/></radialGradient>
    </defs>
</svg>
